# xmcd CD database file
#
# Track frame offsets:
#	150
#	17725
#	38322
#	55168
#	80577
#	98832
#	111949
#	129186
#	152134
#	170111
#	186112
#
# Disc length: 2781 seconds
#
# Revision: 1
# Processed by: cddbd v1.5.2PL0 Copyright (c) Steve Scherf et al.
# Submitted via: CDex 1.51
#
DISCID=830adb0b
DTITLE=Alfred Hirsch - Motivation
DYEAR=2006
DGENRE=Jazz
TTITLE0=Jazz Implosion
TTITLE1=Suburban Jungle
TTITLE2=Vision
TTITLE3=Hirsch Combo
TTITLE4=Montevideo
TTITLE5=Metamorphosis
TTITLE6=Alfred's Hut
TTITLE7=Da
TTITLE8=Freak
TTITLE9=Chili Sauce
TTITLE10=Egotrip
EXTD=YEAR: 2006
EXTT0=
EXTT1=
EXTT2=
EXTT3=
EXTT4=
EXTT5=
EXTT6=
EXTT7=
EXTT8=
EXTT9=
EXTT10=
PLAYORDER=
